<svg width="24" height="24" xmlns="http://www.w3.org/2000/svg">
 <title/>

 <g>
  <title>background</title>
  <rect fill="#000000" id="canvas_background" height="26" width="26" y="-1" x="-1"/>
 </g>
 <g>
  <title>Layer 1</title>
  <path fill="#ffffff" id="svg_1" d="m17.144,20.572l-13.714,0c0,1.893 1.533,3.428 3.426,3.428l10.286,0c1.893,0 3.428,-1.535 3.428,-3.428l0,-14.08c0,-0.07 -0.054,-0.125 -0.124,-0.125l-3.18,0c-0.067,0 -0.123,0.056 -0.123,0.126l0,14.08l0.001,-0.001zm-0.001,-20.571c1.892,0 3.427,1.535 3.427,3.43l-13.712,0l0,14.078c0,0.068 -0.056,0.125 -0.125,0.125l-3.179,0c-0.07,0 -0.125,-0.057 -0.125,-0.125l0,-14.081c0.001,-1.892 1.534,-3.428 3.427,-3.428l10.287,0"/>
 </g>
</svg>